<svg xmlns="http://www.w3.org/2000/svg" width="52" height="52" viewBox="0 0 52 52" fill="none">
  <rect width="52" height="52" transform="matrix(1 0 0 -1 0 52)" fill="black"/>
  <path d="M36.6388 24.1949L20.1941 24.1949L27.3785 17.0104C27.9527 16.4363 27.9527 15.4941 27.3785 14.9199C26.8043 14.3457 25.8768 14.3457 25.3027 14.9199L15.6007 24.6218C15.0266 25.196 15.0266 26.1235 15.6007 26.6977L25.3027 36.3996C25.8768 36.9738 26.8043 36.9738 27.3785 36.3996C27.9527 35.8254 27.9527 34.8979 27.3785 34.3238L20.1941 27.1393L36.6388 27.1393C37.4485 27.1393 38.111 26.4768 38.111 25.6671C38.111 24.8574 37.4485 24.1949 36.6388 24.1949Z" fill="#F4DE88"/>
</svg>