<svg xmlns="http://www.w3.org/2000/svg" width="41" height="41" viewBox="0 0 41 41" fill="none">
  <path d="M32.4583 37.584V35.0215M8.54166 37.584V35.0215" stroke="#F4DE88" stroke-width="3" stroke-linecap="round"/>
  <path d="M22.2083 18.7923C22.2083 19.2454 22.0283 19.6799 21.708 20.0003C21.3876 20.3207 20.9531 20.5007 20.5 20.5007C20.0469 20.5007 19.6124 20.3207 19.292 20.0003C18.9716 19.6799 18.7917 19.2454 18.7917 18.7923C18.7917 18.3392 18.9716 17.9047 19.292 17.5843C19.6124 17.264 20.0469 17.084 20.5 17.084C20.9531 17.084 21.3876 17.264 21.708 17.5843C22.0283 17.9047 22.2083 18.3392 22.2083 18.7923ZM22.2083 8.54232C22.2083 8.9954 22.0283 9.42992 21.708 9.75029C21.3876 10.0707 20.9531 10.2507 20.5 10.2507C20.0469 10.2507 19.6124 10.0707 19.292 9.75029C18.9716 9.42992 18.7917 8.9954 18.7917 8.54232C18.7917 8.08924 18.9716 7.65472 19.292 7.33434C19.6124 7.01397 20.0469 6.83398 20.5 6.83398C20.9531 6.83398 21.3876 7.01397 21.708 7.33434C22.0283 7.65472 22.2083 8.08924 22.2083 8.54232ZM22.2083 29.0423C22.2083 29.4954 22.0283 29.9299 21.708 30.2503C21.3876 30.5707 20.9531 30.7507 20.5 30.7507C20.0469 30.7507 19.6124 30.5707 19.292 30.2503C18.9716 29.9299 18.7917 29.4954 18.7917 29.0423C18.7917 28.5892 18.9716 28.1547 19.292 27.8343C19.6124 27.514 20.0469 27.334 20.5 27.334C20.9531 27.334 21.3876 27.514 21.708 27.8343C22.0283 28.1547 22.2083 28.5892 22.2083 29.0423Z" fill="#F4DE88"/>
  <path d="M3.41666 17.0837C3.41666 10.6415 3.41666 7.41962 5.41882 5.41916C7.41928 3.41699 10.6412 3.41699 17.0833 3.41699H23.9167C30.3588 3.41699 33.5807 3.41699 35.5812 5.41916C37.5833 7.41962 37.5833 10.6415 37.5833 17.0837V20.5003C37.5833 26.9425 37.5833 30.1644 35.5812 32.1648C33.5807 34.167 30.3588 34.167 23.9167 34.167H17.0833C10.6412 34.167 7.41928 34.167 5.41882 32.1648C3.41666 30.1644 3.41666 26.9425 3.41666 20.5003V17.0837Z" stroke="#F4DE88" stroke-width="3"/>
  <path d="M3.41666 23.917H37.5833M3.41666 13.667H37.5833" stroke="#F4DE88" stroke-width="3" stroke-linecap="round"/>
</svg>