<svg xmlns="http://www.w3.org/2000/svg" width="24" height="24" viewBox="0 0 24 24" fill="none">
  <path d="M13.2336 0.00147642C14.1092 -0.00188373 14.9849 0.00691691 15.8603 0.0278756L16.0931 0.0362753C16.3619 0.045875 16.627 0.0578745 16.9474 0.072274C18.2242 0.132272 19.0953 0.333865 19.8597 0.630255C20.6516 0.935045 21.3188 1.34783 21.986 2.01501C22.596 2.61452 23.0681 3.3397 23.3695 4.14014C23.6659 4.90451 23.8675 5.77688 23.9275 7.05364C23.9419 7.37283 23.9539 7.63922 23.9635 7.90801L23.9707 8.1408C23.992 9.0158 24.0012 9.89106 23.9983 10.7663L23.9995 11.6615V13.2334C24.0024 14.1091 23.9932 14.9847 23.9719 15.8601L23.9647 16.0929C23.9551 16.3617 23.9431 16.6269 23.9287 16.9473C23.8687 18.2241 23.6647 19.0952 23.3695 19.8596C23.0691 20.6609 22.5968 21.3867 21.986 21.9859C21.386 22.5959 20.6604 23.068 19.8597 23.3695C19.0953 23.6659 18.2242 23.8675 16.9474 23.9275C16.627 23.9419 16.3619 23.9539 16.0931 23.9635L15.8603 23.9707C14.9849 23.992 14.1093 24.0012 13.2336 23.9983L12.3385 23.9995H10.7677C9.8921 24.0024 9.01646 23.9932 8.14108 23.9719L7.90829 23.9647C7.62343 23.9543 7.33864 23.9423 7.05393 23.9287C5.7772 23.8687 4.90604 23.6647 4.14048 23.3695C3.33974 23.0687 2.61444 22.5965 2.01539 21.9859C1.40467 21.3863 0.932114 20.6606 0.63066 19.8596C0.334275 19.0952 0.132686 18.2241 0.0726886 16.9473C0.0593248 16.6626 0.0473253 16.3778 0.0366905 16.0929L0.0306909 15.8601C0.00856838 14.9847 -0.00143218 14.1091 0.000692365 13.2334V10.7663C-0.00265662 9.89106 0.00614386 9.01581 0.0270911 8.1408L0.0354906 7.90801C0.0450901 7.63922 0.0570895 7.37283 0.0714887 7.05364C0.131486 5.77568 0.333075 4.90571 0.62946 4.14014C0.931092 3.33931 1.40458 2.61432 2.01659 2.01621C2.61523 1.40513 3.34007 0.932132 4.14048 0.630255C4.90604 0.333865 5.776 0.132272 7.05393 0.072274L7.90829 0.0362753L8.14108 0.0302756C9.01605 0.00816377 9.89129 -0.00183696 10.7665 0.000276552L13.2336 0.00147642ZM12.0001 6.00127C11.2051 5.99003 10.4159 6.1369 9.67817 6.43334C8.94047 6.72978 8.26904 7.16989 7.70291 7.72808C7.13678 8.28627 6.68723 8.95142 6.38039 9.68486C6.07355 10.4183 5.91554 11.2054 5.91554 12.0005C5.91554 12.7955 6.07355 13.5826 6.38039 14.3161C6.68723 15.0495 7.13678 15.7147 7.70291 16.2729C8.26904 16.831 8.94047 17.2712 9.67817 17.5676C10.4159 17.864 11.2051 18.0109 12.0001 17.9997C13.5913 17.9997 15.1173 17.3675 16.2425 16.2424C17.3677 15.1172 17.9998 13.5911 17.9998 11.9999C17.9998 10.4086 17.3677 8.88255 16.2425 7.75737C15.1173 6.63219 13.5913 6.00127 12.0001 6.00127ZM12.0001 8.40119C12.4783 8.39238 12.9534 8.47894 13.3978 8.65583C13.8421 8.83272 14.2468 9.09638 14.5881 9.43141C14.9294 9.76644 15.2005 10.1661 15.3856 10.6071C15.5707 11.0481 15.6661 11.5216 15.6662 11.9999C15.6663 12.4781 15.5711 12.9516 15.3861 13.3927C15.2011 13.8337 14.9301 14.2335 14.5889 14.5687C14.2477 14.9038 13.8432 15.1676 13.3989 15.3446C12.9546 15.5217 12.4795 15.6084 12.0013 15.5997C11.0465 15.5997 10.1309 15.2205 9.45582 14.5454C8.78073 13.8703 8.40146 12.9546 8.40146 11.9999C8.40146 11.0451 8.78073 10.1295 9.45582 9.45437C10.1309 8.77926 11.0465 8.39999 12.0013 8.39999L12.0001 8.40119ZM18.2998 4.20133C17.9126 4.21683 17.5465 4.38151 17.2781 4.66088C17.0097 4.94026 16.8598 5.31266 16.8598 5.70008C16.8598 6.08751 17.0097 6.45991 17.2781 6.73928C17.5465 7.01866 17.9126 7.18334 18.2998 7.19883C18.6976 7.19883 19.0791 7.0408 19.3604 6.75951C19.6417 6.47821 19.7997 6.09669 19.7997 5.69888C19.7997 5.30107 19.6417 4.91955 19.3604 4.63826C19.0791 4.35696 18.6976 4.19893 18.2998 4.19893V4.20133Z" fill="#F4DE88"/>
</svg>