<svg xmlns="http://www.w3.org/2000/svg" width="37" height="37" viewBox="0 0 37 37" fill="none">
  <path d="M18.5 2.3125C15.128 2.31648 11.8953 3.65776 9.51089 6.04213C7.12653 8.4265 5.78524 11.6592 5.78126 15.0312C5.77722 17.7869 6.67733 20.4677 8.34351 22.6625C8.34351 22.6625 8.69039 23.1192 8.74704 23.1851L18.5 34.6875L28.2576 23.1793C28.3085 23.1181 28.6565 22.6625 28.6565 22.6625L28.6577 22.659C30.323 20.4652 31.2227 17.7856 31.2188 15.0312C31.2148 11.6592 29.8735 8.4265 27.4891 6.04213C25.1048 3.65776 21.872 2.31648 18.5 2.3125ZM18.5 19.6562C17.5853 19.6562 16.6911 19.385 15.9305 18.8768C15.1699 18.3686 14.5771 17.6463 14.2271 16.8012C13.877 15.9561 13.7854 15.0261 13.9639 14.129C14.1423 13.2318 14.5828 12.4077 15.2296 11.7609C15.8765 11.1141 16.7006 10.6736 17.5977 10.4951C18.4949 10.3167 19.4248 10.4083 20.2699 10.7583C21.115 11.1084 21.8374 11.7012 22.3456 12.4617C22.8538 13.2223 23.125 14.1165 23.125 15.0312C23.1235 16.2574 22.6357 17.4329 21.7687 18.2999C20.9017 19.167 19.7262 19.6547 18.5 19.6562Z" fill="#F4DE88"/>
</svg>