<svg xmlns="http://www.w3.org/2000/svg" width="24" height="24" viewBox="0 0 24 24" fill="none">
  <path d="M22.2007 5.56048C18.6162 -0.00227512 11.2758 -1.6505 5.59895 1.80047C0.0593087 5.25144 -1.72435 12.7715 1.86012 18.3171L2.15168 18.7635L0.951139 23.2617L5.44459 22.0599L5.89051 22.3518C7.82852 23.3991 9.93804 24 12.0304 24C14.2771 24 16.5239 23.3991 18.4619 22.1973C24.0015 18.5918 25.648 11.2263 22.2007 5.52615V5.56048ZM19.0622 17.1324C18.4619 18.0252 17.7073 18.6261 16.6611 18.7806C16.0608 18.7806 15.3062 19.0725 12.322 17.8878C9.78369 16.686 7.67417 14.7287 6.18207 12.4796C5.29024 11.4323 4.82717 10.0759 4.68997 8.71958C4.68997 7.51775 5.13588 6.47044 5.89051 5.71501C6.18207 5.42313 6.49078 5.26861 6.78234 5.26861H7.53696C7.82852 5.26861 8.13723 5.26861 8.29159 5.86953C8.58315 6.62496 9.33777 8.42771 9.33777 8.58223C9.49213 8.73675 9.42352 9.88707 8.7375 10.5395C8.36019 10.9687 8.29159 10.9859 8.44594 11.2949C9.04621 12.1877 9.80084 13.0977 10.5383 13.8531C11.4301 14.6086 12.3391 15.2095 13.3853 15.6559C13.6769 15.8104 13.9856 15.8104 14.1399 15.5013C14.2943 15.2095 15.0318 14.454 15.3405 14.145C15.632 13.8531 15.7864 13.8531 16.0951 13.9905L18.4962 15.1923C18.7877 15.3468 19.0965 15.4842 19.2508 15.6387C19.4052 16.0851 19.4052 16.686 19.0965 17.1324H19.0622Z" fill="#F4DE88"/>
</svg>